<?xml version="1.0" ?><svg data-name="Layer 1" id="Layer_1" viewBox="0 0 32 32" xmlns="http://www.w3.org/2000/svg"><path d="M10,18a1,1,0,0,1-.95-.68,1,1,0,0,1,.63-1.27l6-2a1,1,0,0,1,.64,1.9l-6,2A1.25,1.25,0,0,1,10,18Z"/><path d="M22,18a1.25,1.25,0,0,1-.32-.05l-6-2a1,1,0,1,1,.64-1.9l6,2A1,1,0,0,1,23,17.32,1,1,0,0,1,22,18Z"/><path d="M16,30c-3.92,0-7-5.71-7-13a1,1,0,0,1,2,0c0,6.48,2.63,11,5,11a1,1,0,0,1,0,2Z"/><path d="M16,30a1,1,0,0,1,0-2c2.37,0,5-4.52,5-11a1,1,0,0,1,2,0C23,24.29,19.92,30,16,30Z"/><path d="M7,25A7,7,0,0,1,7,11a1,1,0,0,1,0,2A5,5,0,0,0,7,23a1,1,0,0,1,0,2Z"/><path d="M25,25a1,1,0,0,1,0-2,5,5,0,0,0,0-10,1,1,0,0,1,0-2,7,7,0,0,1,0,14Z"/><path d="M25,13a1,1,0,0,1-1-1A8,8,0,0,0,8,12a1,1,0,0,1-2,0,10,10,0,0,1,20,0A1,1,0,0,1,25,13Z"/><path d="M8,25H7a1,1,0,0,1,0-2H8a1,1,0,0,1,0,2Z"/><path d="M25,25H24a1,1,0,0,1,0-2h1a1,1,0,0,1,0,2Z"/></svg>